<svg width="45" height="45" viewBox="0 0 45 45" fill="none" xmlns="http://www.w3.org/2000/svg">
<circle cx="22.5" cy="22.5" r="22.5" transform="rotate(90 22.5 22.5)" fill="#FFE68E"/>
<path d="M23.0763 28.789L32.7625 20.2248C33.0797 19.9442 33.0792 19.4899 32.7609 19.2097C32.4426 18.9298 31.9271 18.9306 31.6097 19.2112L22.5 27.2657L13.3903 19.2109C13.0728 18.9303 12.5576 18.9296 12.2393 19.2095C12.0798 19.3499 12 19.5338 12 19.7178C12 19.9013 12.0792 20.0846 12.2377 20.2247L21.9237 28.789C22.0762 28.9242 22.2837 29 22.5 29C22.7162 29 22.9235 28.9239 23.0763 28.789Z" fill="black"/>
</svg>
