<svg width="27" height="34" viewBox="0 0 27 34" fill="none" xmlns="http://www.w3.org/2000/svg">
<path d="M0.0341797 13.937C0.0341797 6.57357 6.03373 0.605225 13.4346 0.605225C20.8365 0.605225 26.836 6.57357 26.836 13.937C26.836 15.2548 26.6409 16.5267 26.2833 17.7319C24.3754 25.4083 13.3748 33.9946 13.3748 33.9946C13.3748 33.9946 0.9467 24.3002 0.215635 16.3003L0.24815 16.294C0.109699 15.5303 0.0341797 14.7425 0.0341797 13.937ZM13.2521 16.9065C16.2802 16.9065 18.7345 14.4639 18.7345 11.4515C18.7345 8.4392 16.2802 5.9976 13.2521 5.9976C10.225 5.9976 7.77067 8.4392 7.77067 11.4515C7.77067 14.4639 10.225 16.9065 13.2521 16.9065Z" fill="black"/>
</svg>
