<svg width="550" height="582" viewBox="0 0 550 582" fill="none" xmlns="http://www.w3.org/2000/svg">
<path d="M114.208 486C118.082 486 120.952 487.027 122.818 489.08C124.732 491.133 125.688 494.143 125.688 498.11V504.48C125.688 508.447 124.732 511.457 122.818 513.51C120.952 515.563 118.082 516.59 114.208 516.59H110.568V535H102.868V486H114.208ZM110.568 493V509.59H114.208C115.422 509.59 116.355 509.263 117.008 508.61C117.662 507.957 117.988 506.743 117.988 504.97V497.62C117.988 495.847 117.662 494.633 117.008 493.98C116.355 493.327 115.422 493 114.208 493H110.568ZM153.628 535H145.858L144.528 526.11H135.078L133.748 535H126.678L134.518 486H145.788L153.628 535ZM136.058 519.46H143.478L139.768 494.68L136.058 519.46ZM168.764 507.7H179.544V523.24C179.544 527.207 178.564 530.263 176.604 532.41C174.691 534.51 171.844 535.56 168.064 535.56C164.284 535.56 161.414 534.51 159.454 532.41C157.541 530.263 156.584 527.207 156.584 523.24V497.76C156.584 493.793 157.541 490.76 159.454 488.66C161.414 486.513 164.284 485.44 168.064 485.44C171.844 485.44 174.691 486.513 176.604 488.66C178.564 490.76 179.544 493.793 179.544 497.76V502.52H172.264V497.27C172.264 495.497 171.891 494.26 171.144 493.56C170.444 492.813 169.487 492.44 168.274 492.44C167.061 492.44 166.081 492.813 165.334 493.56C164.634 494.26 164.284 495.497 164.284 497.27V523.73C164.284 525.503 164.634 526.74 165.334 527.44C166.081 528.14 167.061 528.49 168.274 528.49C169.487 528.49 170.444 528.14 171.144 527.44C171.891 526.74 172.264 525.503 172.264 523.73V514.7H168.764V507.7ZM192.189 506.65H202.759V513.65H192.189V528H205.489V535H184.489V486H205.489V493H192.189V506.65ZM227.99 499.51V535H221.06V486H230.72L238.63 515.33V486H245.49V535H237.58L227.99 499.51ZM258.073 523.73C258.073 525.503 258.423 526.763 259.123 527.51C259.87 528.21 260.85 528.56 262.063 528.56C263.276 528.56 264.233 528.21 264.933 527.51C265.68 526.763 266.053 525.503 266.053 523.73V497.27C266.053 495.497 265.68 494.26 264.933 493.56C264.233 492.813 263.276 492.44 262.063 492.44C260.85 492.44 259.87 492.813 259.123 493.56C258.423 494.26 258.073 495.497 258.073 497.27V523.73ZM250.373 497.76C250.373 493.793 251.376 490.76 253.383 488.66C255.39 486.513 258.283 485.44 262.063 485.44C265.843 485.44 268.736 486.513 270.743 488.66C272.75 490.76 273.753 493.793 273.753 497.76V523.24C273.753 527.207 272.75 530.263 270.743 532.41C268.736 534.51 265.843 535.56 262.063 535.56C258.283 535.56 255.39 534.51 253.383 532.41C251.376 530.263 250.373 527.207 250.373 523.24V497.76ZM276.517 486H300.317V493H292.267V535H284.567V493H276.517V486ZM322.277 507.77H332.217V514.77H322.277V535H314.577V486H334.947V493H322.277V507.77ZM345.71 523.73C345.71 525.503 346.06 526.763 346.76 527.51C347.507 528.21 348.487 528.56 349.7 528.56C350.913 528.56 351.87 528.21 352.57 527.51C353.317 526.763 353.69 525.503 353.69 523.73V497.27C353.69 495.497 353.317 494.26 352.57 493.56C351.87 492.813 350.913 492.44 349.7 492.44C348.487 492.44 347.507 492.813 346.76 493.56C346.06 494.26 345.71 495.497 345.71 497.27V523.73ZM338.01 497.76C338.01 493.793 339.013 490.76 341.02 488.66C343.027 486.513 345.92 485.44 349.7 485.44C353.48 485.44 356.373 486.513 358.38 488.66C360.387 490.76 361.39 493.793 361.39 497.76V523.24C361.39 527.207 360.387 530.263 358.38 532.41C356.373 534.51 353.48 535.56 349.7 535.56C345.92 535.56 343.027 534.51 341.02 532.41C339.013 530.263 338.01 527.207 338.01 523.24V497.76ZM373.744 486V523.8C373.744 525.573 374.094 526.81 374.794 527.51C375.54 528.21 376.52 528.56 377.734 528.56C378.947 528.56 379.904 528.21 380.604 527.51C381.35 526.81 381.724 525.573 381.724 523.8V486H389.004V523.31C389.004 527.277 388.024 530.333 386.064 532.48C384.15 534.58 381.304 535.63 377.524 535.63C373.744 535.63 370.874 534.58 368.914 532.48C367 530.333 366.044 527.277 366.044 523.31V486H373.744ZM401.144 499.51V535H394.214V486H403.874L411.784 515.33V486H418.644V535H410.734L401.144 499.51ZM424.157 486H436.337C440.211 486 443.081 487.027 444.947 489.08C446.861 491.133 447.817 494.143 447.817 498.11V522.89C447.817 526.857 446.861 529.867 444.947 531.92C443.081 533.973 440.211 535 436.337 535H424.157V486ZM431.857 493V528H436.197C437.411 528 438.367 527.65 439.067 526.95C439.767 526.25 440.117 525.013 440.117 523.24V497.76C440.117 495.987 439.767 494.75 439.067 494.05C438.367 493.35 437.411 493 436.197 493H431.857Z" fill="#333333"/>
<path d="M172.569 569.2H175.649V573.64C175.649 574.773 175.369 575.647 174.809 576.26C174.262 576.86 173.449 577.16 172.369 577.16C171.289 577.16 170.469 576.86 169.909 576.26C169.362 575.647 169.089 574.773 169.089 573.64V566.36C169.089 565.227 169.362 564.36 169.909 563.76C170.469 563.147 171.289 562.84 172.369 562.84C173.449 562.84 174.262 563.147 174.809 563.76C175.369 564.36 175.649 565.227 175.649 566.36V567.72H173.569V566.22C173.569 565.713 173.462 565.36 173.249 565.16C173.049 564.947 172.775 564.84 172.429 564.84C172.082 564.84 171.802 564.947 171.589 565.16C171.389 565.36 171.289 565.713 171.289 566.22V573.78C171.289 574.287 171.389 574.64 171.589 574.84C171.802 575.04 172.082 575.14 172.429 575.14C172.775 575.14 173.049 575.04 173.249 574.84C173.462 574.64 173.569 574.287 173.569 573.78V571.2H172.569V569.2ZM179.082 573.78C179.082 574.287 179.182 574.647 179.382 574.86C179.595 575.06 179.875 575.16 180.222 575.16C180.568 575.16 180.842 575.06 181.042 574.86C181.255 574.647 181.362 574.287 181.362 573.78V566.22C181.362 565.713 181.255 565.36 181.042 565.16C180.842 564.947 180.568 564.84 180.222 564.84C179.875 564.84 179.595 564.947 179.382 565.16C179.182 565.36 179.082 565.713 179.082 566.22V573.78ZM176.882 566.36C176.882 565.227 177.168 564.36 177.742 563.76C178.315 563.147 179.142 562.84 180.222 562.84C181.302 562.84 182.128 563.147 182.702 563.76C183.275 564.36 183.562 565.227 183.562 566.36V573.64C183.562 574.773 183.275 575.647 182.702 576.26C182.128 576.86 181.302 577.16 180.222 577.16C179.142 577.16 178.315 576.86 177.742 576.26C177.168 575.647 176.882 574.773 176.882 573.64V566.36ZM191.417 563C192.564 563 193.39 563.267 193.897 563.8C194.417 564.333 194.677 565.14 194.677 566.22V566.72C194.677 567.44 194.564 568.033 194.337 568.5C194.11 568.967 193.75 569.313 193.257 569.54C193.857 569.767 194.277 570.14 194.517 570.66C194.77 571.167 194.897 571.793 194.897 572.54V573.68C194.897 574.76 194.617 575.587 194.057 576.16C193.497 576.72 192.664 577 191.557 577H188.097V563H191.417ZM190.297 570.7V575H191.557C191.93 575 192.21 574.9 192.397 574.7C192.597 574.5 192.697 574.14 192.697 573.62V572.4C192.697 571.747 192.584 571.3 192.357 571.06C192.144 570.82 191.784 570.7 191.277 570.7H190.297ZM190.297 565V568.7H191.157C191.57 568.7 191.89 568.593 192.117 568.38C192.357 568.167 192.477 567.78 192.477 567.22V566.44C192.477 565.933 192.384 565.567 192.197 565.34C192.024 565.113 191.744 565 191.357 565H190.297ZM203.342 577H201.122L200.742 574.46H198.042L197.662 577H195.642L197.882 563H201.102L203.342 577ZM198.322 572.56H200.442L199.382 565.48L198.322 572.56ZM210.727 571.78V573.64C210.727 574.773 210.447 575.647 209.887 576.26C209.34 576.86 208.527 577.16 207.447 577.16C206.367 577.16 205.547 576.86 204.987 576.26C204.44 575.647 204.167 574.773 204.167 573.64V566.36C204.167 565.227 204.44 564.36 204.987 563.76C205.547 563.147 206.367 562.84 207.447 562.84C208.527 562.84 209.34 563.147 209.887 563.76C210.447 564.36 210.727 565.227 210.727 566.36V567.72H208.647V566.22C208.647 565.713 208.54 565.36 208.327 565.16C208.127 564.947 207.854 564.84 207.507 564.84C207.16 564.84 206.88 564.947 206.667 565.16C206.467 565.36 206.367 565.713 206.367 566.22V573.78C206.367 574.287 206.467 574.64 206.667 574.84C206.88 575.04 207.16 575.14 207.507 575.14C207.854 575.14 208.127 575.04 208.327 574.84C208.54 574.64 208.647 574.287 208.647 573.78V571.78H210.727ZM214.942 571.42L214.262 572.7V577H212.062V563H214.262V569.1L217.142 563H219.342L216.282 569.24L219.342 577H217.082L214.942 571.42ZM230.568 577H228.348L227.968 574.46H225.268L224.888 577H222.868L225.108 563H228.328L230.568 577ZM225.548 572.56H227.668L226.608 565.48L225.548 572.56ZM233.553 566.86V577H231.573V563H234.333L236.593 571.38V563H238.553V577H236.293L233.553 566.86ZM240.128 563H243.608C244.715 563 245.535 563.293 246.068 563.88C246.615 564.467 246.888 565.327 246.888 566.46V573.54C246.888 574.673 246.615 575.533 246.068 576.12C245.535 576.707 244.715 577 243.608 577H240.128V563ZM242.328 565V575H243.568C243.915 575 244.188 574.9 244.388 574.7C244.588 574.5 244.688 574.147 244.688 573.64V566.36C244.688 565.853 244.588 565.5 244.388 565.3C244.188 565.1 243.915 565 243.568 565H242.328ZM250.758 563H257.558V565H255.258V577H253.058V565H250.758V563ZM263.127 577C263.1 576.907 263.073 576.82 263.047 576.74C263.02 576.66 262.993 576.56 262.967 576.44C262.953 576.32 262.94 576.167 262.927 575.98C262.927 575.793 262.927 575.56 262.927 575.28V573.08C262.927 572.427 262.813 571.967 262.587 571.7C262.36 571.433 261.993 571.3 261.487 571.3H260.727V577H258.527V563H261.847C262.993 563 263.82 563.267 264.327 563.8C264.847 564.333 265.107 565.14 265.107 566.22V567.32C265.107 568.76 264.627 569.707 263.667 570.16C264.227 570.387 264.607 570.76 264.807 571.28C265.02 571.787 265.127 572.407 265.127 573.14V575.3C265.127 575.647 265.14 575.953 265.167 576.22C265.193 576.473 265.26 576.733 265.367 577H263.127ZM260.727 565V569.3H261.587C262 569.3 262.32 569.193 262.547 568.98C262.787 568.767 262.907 568.38 262.907 567.82V566.44C262.907 565.933 262.813 565.567 262.627 565.34C262.453 565.113 262.173 565 261.787 565H260.727ZM268.438 572.36L265.658 563H267.958L269.638 569.38L271.318 563H273.418L270.638 572.36V577H268.438V572.36ZM284.533 577H282.313L281.933 574.46H279.233L278.853 577H276.833L279.073 563H282.293L284.533 577ZM279.513 572.56H281.633L280.573 565.48L279.513 572.56ZM288.663 563H292.143C293.25 563 294.07 563.293 294.603 563.88C295.15 564.467 295.423 565.327 295.423 566.46V573.54C295.423 574.673 295.15 575.533 294.603 576.12C294.07 576.707 293.25 577 292.143 577H288.663V563ZM290.863 565V575H292.103C292.45 575 292.723 574.9 292.923 574.7C293.123 574.5 293.223 574.147 293.223 573.64V566.36C293.223 565.853 293.123 565.5 292.923 565.3C292.723 565.1 292.45 565 292.103 565H290.863ZM296.827 563H299.027V577H296.827V563ZM302.836 569.22H305.676V571.22H302.836V577H300.636V563H306.456V565H302.836V569.22ZM309.711 569.22H312.551V571.22H309.711V577H307.511V563H313.331V565H309.711V569.22ZM316.586 568.9H319.606V570.9H316.586V575H320.386V577H314.386V563H320.386V565H316.586V568.9ZM326.349 577C326.323 576.907 326.296 576.82 326.269 576.74C326.243 576.66 326.216 576.56 326.189 576.44C326.176 576.32 326.163 576.167 326.149 575.98C326.149 575.793 326.149 575.56 326.149 575.28V573.08C326.149 572.427 326.036 571.967 325.809 571.7C325.583 571.433 325.216 571.3 324.709 571.3H323.949V577H321.749V563H325.069C326.216 563 327.043 563.267 327.549 563.8C328.069 564.333 328.329 565.14 328.329 566.22V567.32C328.329 568.76 327.849 569.707 326.889 570.16C327.449 570.387 327.829 570.76 328.029 571.28C328.243 571.787 328.349 572.407 328.349 573.14V575.3C328.349 575.647 328.363 575.953 328.389 576.22C328.416 576.473 328.483 576.733 328.589 577H326.349ZM323.949 565V569.3H324.809C325.223 569.3 325.543 569.193 325.769 568.98C326.009 568.767 326.129 568.38 326.129 567.82V566.44C326.129 565.933 326.036 565.567 325.849 565.34C325.676 565.113 325.396 565 325.009 565H323.949ZM331.996 568.9H335.016V570.9H331.996V575H335.796V577H329.796V563H335.796V565H331.996V568.9ZM339.119 566.86V577H337.139V563H339.899L342.159 571.38V563H344.119V577H341.859L339.119 566.86ZM345.055 563H351.855V565H349.555V577H347.355V565H345.055V563ZM355.929 563H358.129V575H361.749V577H355.929V563ZM362.706 563H364.906V577H362.706V563ZM368.475 566.86V577H366.495V563H369.255L371.515 571.38V563H373.475V577H371.215L368.475 566.86ZM377.93 571.42L377.25 572.7V577H375.05V563H377.25V569.1L380.13 563H382.33L379.27 569.24L382.33 577H380.07L377.93 571.42Z" fill="#59C3FB"/>
<path d="M0 306.735L77.9269 201.032H122.014V306.735H136.821V332.027H122.014V367.98H77.911V332.027H0V306.735ZM77.911 306.735V254.598L41.4974 306.735H77.911Z" fill="#75D1F9"/>
<path d="M412.306 306.735L490.217 201.032H534.304V306.735H550V332.027H534.304V367.98H490.217V332.027H412.306V306.735ZM490.217 306.735V254.598L453.803 306.735H490.217Z" fill="#75D1F9"/>
<path d="M276.81 452.269C361.76 451.124 429.695 381.298 428.546 296.309C427.397 211.32 357.599 143.352 272.649 144.497C187.698 145.643 119.763 215.468 120.912 300.457C122.061 385.446 191.859 453.415 276.81 452.269Z" fill="#75D1F9"/>
<path d="M346.309 337.345C373.651 316.867 400.675 324.011 415.387 330.836C416.896 320.09 428.78 189.94 276.056 189.94C276.024 189.94 276.008 189.94 275.977 189.94C275.945 189.94 275.929 189.94 275.897 189.94C124.953 189.94 135.041 320.09 136.55 330.836C151.262 324.011 178.286 316.867 205.628 337.345C233.129 357.949 232.366 388.665 229.03 406.301C244.17 409.015 260.073 410.253 275.897 410.332C275.929 410.332 275.945 410.332 275.977 410.332C276.008 410.332 276.024 410.332 276.056 410.332C291.864 410.253 307.783 409.015 322.923 406.301C319.587 388.665 318.809 357.933 346.309 337.345ZM276.183 324.614C273.037 324.614 267.842 319.995 267.254 315.756C266.476 310.756 273.037 310.359 276.707 310.169C292.309 310.137 281.331 324.614 276.183 324.614Z" fill="white"/>
<path d="M276.69 310.168C273.02 310.359 266.474 310.739 267.237 315.756C267.809 319.994 273.02 324.613 276.166 324.613C281.329 324.613 292.307 310.136 276.69 310.168Z" fill="#333333"/>
<path d="M205.627 337.345C178.286 316.867 151.261 324.011 136.55 330.836C142.841 375.585 182.241 397.935 229.029 406.301C232.366 388.665 233.128 357.933 205.627 337.345Z" fill="white"/>
<path d="M415.386 330.836C400.675 324.011 373.651 316.867 346.309 337.345C318.808 357.949 319.57 388.665 322.907 406.301C369.695 397.919 409.111 375.569 415.386 330.836Z" fill="white"/>
<path d="M173.68 203.433C164.147 207.656 163.671 220.815 172.298 226.307L190.886 212.259C187.2 202.084 178.43 201.401 173.68 203.433Z" fill="#FFC1C2"/>
<path d="M162.812 180.654C135.565 192.718 134.199 230.339 158.872 246.022L211.999 205.861C201.466 176.812 176.396 174.875 162.812 180.654ZM172.297 226.291C163.67 220.798 164.146 207.639 173.679 203.417C178.429 201.401 187.199 202.067 190.885 212.227L172.297 226.291Z" fill="#333333"/>
<path d="M378.385 203.433C373.635 201.417 364.866 202.083 361.18 212.243L379.768 226.291C388.394 220.814 387.918 207.655 378.385 203.433Z" fill="#FFC1C2"/>
<path d="M389.254 180.654C375.67 174.876 350.6 176.812 340.083 205.846L393.194 246.006C417.867 230.339 416.485 192.734 389.254 180.654ZM379.769 226.291L361.181 212.243C364.867 202.084 373.637 201.401 378.387 203.433C387.919 207.655 388.396 220.815 379.769 226.291Z" fill="#333333"/>
<path d="M252.242 377.219C254.705 385.902 264.396 392.394 275.978 392.394C283.794 392.394 290.737 389.442 295.185 384.87C283.731 375.425 264.491 371.838 252.242 377.219Z" fill="#FF7979"/>
<path d="M415.386 330.836C400.675 324.011 373.651 316.867 346.309 337.345C318.808 357.949 319.57 388.665 322.907 406.301C369.695 397.919 409.111 375.569 415.386 330.836Z" fill="#FFDBDB"/>
<path d="M300.315 372.886C300.315 362.108 289.417 353.377 275.976 353.377C262.535 353.377 251.637 362.108 251.637 372.886C251.637 374.378 251.859 375.823 252.24 377.219C264.505 371.838 283.745 375.426 295.184 384.871C298.393 381.569 300.315 377.41 300.315 372.886Z" fill="#333333"/>
<path d="M205.627 337.345C178.286 316.867 151.261 324.011 136.55 330.836C142.841 375.585 182.241 397.935 229.029 406.301C232.366 388.665 233.128 357.933 205.627 337.345Z" fill="#FFDBDB"/>
<path d="M255.291 271.817C264.665 284.929 254.989 307.882 233.685 323.074C212.38 338.265 187.516 339.963 178.143 326.851C168.785 313.74 178.445 290.786 199.765 275.595C221.07 260.404 245.934 258.705 255.291 271.817Z" fill="#333333"/>
<path d="M296.646 271.817C287.273 284.929 296.948 307.882 318.253 323.074C339.557 338.265 364.421 339.963 373.794 326.851C383.168 313.74 373.493 290.786 352.188 275.595C330.867 260.404 306.004 258.705 296.646 271.817Z" fill="#333333"/>
<path d="M322.685 289.39C317.648 289.39 313.565 293.469 313.565 298.517C313.565 303.549 317.648 307.645 322.685 307.645C327.721 307.645 331.82 303.565 331.82 298.517C331.82 293.485 327.721 289.39 322.685 289.39ZM322.685 300.93C321.35 300.93 320.27 299.851 320.27 298.517C320.27 297.184 321.35 296.104 322.685 296.104C324.019 296.104 325.1 297.184 325.1 298.517C325.1 299.851 324.019 300.93 322.685 300.93Z" fill="white"/>
<path d="M229.252 289.39C224.216 289.39 220.117 293.469 220.117 298.517C220.117 303.549 224.2 307.645 229.252 307.645C234.289 307.645 238.372 303.565 238.372 298.517C238.387 293.485 234.304 289.39 229.252 289.39ZM229.252 300.93C227.918 300.93 226.837 299.851 226.837 298.517C226.837 297.184 227.918 296.104 229.252 296.104C230.587 296.104 231.667 297.184 231.667 298.517C231.667 299.851 230.587 300.93 229.252 300.93Z" fill="white"/>
<path d="M384.931 185.813C395.528 188.718 403.487 199.163 403.471 209.751C403.471 215.593 397.974 218.498 390.984 202.576C385.757 190.671 371.967 190.877 373.683 187.623C375.049 185.004 381.007 184.734 384.931 185.813Z" fill="#4D4D4D"/>
<path d="M167.133 185.813C156.537 188.718 148.577 199.163 148.577 209.751C148.577 215.593 154.074 218.498 161.065 202.576C166.291 190.671 180.082 190.877 178.366 187.623C176.999 185.004 171.042 184.734 167.133 185.813Z" fill="#4D4D4D"/>
<path d="M275.467 178.035C283.093 113.984 357.175 127.382 413.702 126.223C459.394 125.286 483.797 120.429 480.619 71.2676C479.507 53.9334 495.108 -7.22837 402.946 0.930769C310.785 9.08991 213.618 -1.56142 154.931 0.200574C96.2435 1.96257 75.0181 14.2013 73.906 67.2039C72.7939 120.207 80.8329 130.001 166.735 125.302C278.534 119.191 275.467 178.035 275.467 178.035Z" fill="#333333"/>
<path d="M184.76 59.48C184.76 63.5867 184.387 67.5067 183.64 71.24C182.947 74.92 181.613 78.1733 179.64 81C177.667 83.7733 174.973 86.0133 171.56 87.72C168.147 89.3733 163.72 90.2 158.28 90.2C152.84 90.2 148.413 89.3733 145 87.72C141.587 86.0133 138.893 83.7467 136.92 80.92C135 78.0933 133.667 74.84 132.92 71.16C132.227 67.4267 131.88 63.5333 131.88 59.48C131.88 55.8 132.227 52.2 132.92 48.68C133.667 45.16 135 42.0133 136.92 39.24C138.893 36.4667 141.587 34.2533 145 32.6C148.467 30.8933 152.893 30.04 158.28 30.04C163.667 30.04 168.067 30.8933 171.48 32.6C174.947 34.2533 177.64 36.4667 179.56 39.24C181.533 42.0133 182.893 45.16 183.64 48.68C184.387 52.2 184.76 55.8 184.76 59.48ZM170.04 59.48C170.04 56.3333 169.827 53.6667 169.4 51.48C169.027 49.24 168.36 47.4267 167.4 46.04C166.493 44.6533 165.293 43.64 163.8 43C162.307 42.36 160.467 42.04 158.28 42.04C156.093 42.04 154.253 42.36 152.76 43C151.267 43.5867 150.067 44.5733 149.16 45.96C148.253 47.3467 147.613 49.16 147.24 51.4C146.867 53.5867 146.68 56.28 146.68 59.48C146.68 63.0533 146.867 66.04 147.24 68.44C147.667 70.84 148.333 72.7867 149.24 74.28C150.147 75.72 151.32 76.76 152.76 77.4C154.253 77.9867 156.093 78.28 158.28 78.28C160.467 78.28 162.307 77.96 163.8 77.32C165.293 76.68 166.493 75.64 167.4 74.2C168.36 72.7067 169.027 70.76 169.4 68.36C169.827 65.96 170.04 63 170.04 59.48ZM235.35 67.4C235.35 70.76 234.923 73.8267 234.07 76.6C233.27 79.3733 231.963 81.7733 230.15 83.8C228.39 85.8267 226.07 87.4 223.19 88.52C220.31 89.64 216.79 90.2 212.63 90.2C208.47 90.2 204.95 89.64 202.07 88.52C199.243 87.4 196.923 85.8533 195.11 83.88C193.297 81.8533 191.99 79.4533 191.19 76.68C190.39 73.9067 189.99 70.84 189.99 67.48C189.99 64.12 190.39 61.0533 191.19 58.28C191.99 55.5067 193.297 53.1333 195.11 51.16C196.923 49.1333 199.243 47.56 202.07 46.44C204.95 45.32 208.47 44.76 212.63 44.76C216.79 44.76 220.31 45.32 223.19 46.44C226.07 47.5067 228.39 49.0533 230.15 51.08C231.963 53.0533 233.27 55.4267 234.07 58.2C234.923 60.9733 235.35 64.04 235.35 67.4ZM220.71 67.4C220.71 64.9467 220.55 62.9467 220.23 61.4C219.91 59.8533 219.403 58.6267 218.71 57.72C218.017 56.8133 217.163 56.2 216.15 55.88C215.137 55.5067 213.963 55.32 212.63 55.32C211.243 55.32 210.043 55.5067 209.03 55.88C208.07 56.2 207.243 56.8133 206.55 57.72C205.857 58.6267 205.35 59.88 205.03 61.48C204.71 63.0267 204.55 65.0267 204.55 67.48C204.55 69.9333 204.71 71.96 205.03 73.56C205.35 75.1067 205.857 76.36 206.55 77.32C207.243 78.2267 208.07 78.8667 209.03 79.24C210.043 79.56 211.243 79.72 212.63 79.72C213.963 79.72 215.137 79.5333 216.15 79.16C217.163 78.7867 218.017 78.1467 218.71 77.24C219.403 76.28 219.91 75.0267 220.23 73.48C220.55 71.88 220.71 69.8533 220.71 67.4ZM285.194 67.4C285.194 70.76 284.767 73.8267 283.914 76.6C283.114 79.3733 281.807 81.7733 279.994 83.8C278.234 85.8267 275.914 87.4 273.034 88.52C270.154 89.64 266.634 90.2 262.474 90.2C258.314 90.2 254.794 89.64 251.914 88.52C249.087 87.4 246.767 85.8533 244.954 83.88C243.14 81.8533 241.834 79.4533 241.034 76.68C240.234 73.9067 239.834 70.84 239.834 67.48C239.834 64.12 240.234 61.0533 241.034 58.28C241.834 55.5067 243.14 53.1333 244.954 51.16C246.767 49.1333 249.087 47.56 251.914 46.44C254.794 45.32 258.314 44.76 262.474 44.76C266.634 44.76 270.154 45.32 273.034 46.44C275.914 47.5067 278.234 49.0533 279.994 51.08C281.807 53.0533 283.114 55.4267 283.914 58.2C284.767 60.9733 285.194 64.04 285.194 67.4ZM270.554 67.4C270.554 64.9467 270.394 62.9467 270.074 61.4C269.754 59.8533 269.247 58.6267 268.554 57.72C267.86 56.8133 267.007 56.2 265.994 55.88C264.98 55.5067 263.807 55.32 262.474 55.32C261.087 55.32 259.887 55.5067 258.874 55.88C257.914 56.2 257.087 56.8133 256.394 57.72C255.7 58.6267 255.194 59.88 254.874 61.48C254.554 63.0267 254.394 65.0267 254.394 67.48C254.394 69.9333 254.554 71.96 254.874 73.56C255.194 75.1067 255.7 76.36 256.394 77.32C257.087 78.2267 257.914 78.8667 258.874 79.24C259.887 79.56 261.087 79.72 262.474 79.72C263.807 79.72 264.98 79.5333 265.994 79.16C267.007 78.7867 267.86 78.1467 268.554 77.24C269.247 76.28 269.754 75.0267 270.074 73.48C270.394 71.88 270.554 69.8533 270.554 67.4ZM335.278 67.24C335.278 70.76 334.824 73.9333 333.918 76.76C333.011 79.5867 331.651 82.0133 329.838 84.04C328.024 86.0133 325.704 87.5333 322.878 88.6C320.104 89.6667 316.851 90.2 313.118 90.2C311.998 90.2 310.744 90.0667 309.358 89.8C308.024 89.5867 306.691 89.16 305.358 88.52C305.678 89.2667 305.891 89.8 305.998 90.12C306.158 90.44 306.238 90.8133 306.238 91.24V108.44H291.758V46.04H302.558L303.758 49.08C305.411 47.5867 307.198 46.4933 309.118 45.8C311.038 45.1067 313.011 44.76 315.038 44.76C317.971 44.76 320.664 45.2133 323.118 46.12C325.624 47.0267 327.784 48.4133 329.598 50.28C331.411 52.1467 332.798 54.4933 333.758 57.32C334.771 60.0933 335.278 63.4 335.278 67.24ZM320.798 67.24C320.798 62.9733 320.158 59.7733 318.878 57.64C317.651 55.5067 315.571 54.44 312.638 54.44C311.731 54.44 310.744 54.6267 309.678 55C308.664 55.32 307.518 55.8533 306.238 56.6V79.24C307.464 79.8267 308.558 80.2 309.518 80.36C310.478 80.4667 311.438 80.52 312.398 80.52C315.384 80.52 317.518 79.4533 318.798 77.32C320.131 75.1867 320.798 71.8267 320.798 67.24ZM379.436 75.16C379.436 77.72 378.929 79.9333 377.916 81.8C376.956 83.6667 375.596 85.24 373.836 86.52C372.076 87.7467 369.969 88.6533 367.516 89.24C365.062 89.88 362.369 90.2 359.436 90.2C353.996 90.2 349.676 89.24 346.476 87.32C343.276 85.4 340.929 82.92 339.436 79.88L349.596 76.04C350.716 77.7467 352.049 78.9467 353.596 79.64C355.196 80.3333 357.142 80.68 359.436 80.68C360.182 80.68 360.929 80.6267 361.676 80.52C362.422 80.4133 363.089 80.2267 363.676 79.96C364.262 79.6933 364.742 79.2933 365.116 78.76C365.489 78.2267 365.676 77.56 365.676 76.76C365.676 75.9067 365.489 75.1867 365.116 74.6C364.742 73.96 363.862 73.5067 362.476 73.24L352.236 71.56C350.582 71.2933 349.036 70.84 347.596 70.2C346.156 69.56 344.876 68.7067 343.756 67.64C342.689 66.52 341.836 65.16 341.196 63.56C340.609 61.96 340.316 60.0933 340.316 57.96C340.316 55.56 340.822 53.5333 341.836 51.88C342.902 50.1733 344.316 48.8133 346.076 47.8C347.836 46.7333 349.889 45.96 352.236 45.48C354.582 45 357.062 44.76 359.676 44.76C364.209 44.76 367.996 45.5067 371.036 47C374.076 48.4933 376.529 50.6 378.396 53.32L368.956 58.28C367.889 57.0533 366.609 56.0933 365.116 55.4C363.622 54.7067 361.809 54.36 359.676 54.36C358.236 54.36 356.929 54.5733 355.756 55C354.636 55.4267 354.076 56.3333 354.076 57.72C354.076 59.3733 354.956 60.36 356.716 60.68L365.756 62.2C367.836 62.52 369.702 63 371.356 63.64C373.062 64.2267 374.502 65.0267 375.676 66.04C376.902 67.0533 377.836 68.3067 378.476 69.8C379.116 71.2933 379.436 73.08 379.436 75.16ZM398.142 70.84H387.502L385.662 56.28V26.68H399.822V56.36L398.142 70.84ZM399.902 88.12C399.902 88.7067 399.635 89 399.102 89H386.462C385.929 89 385.662 88.7067 385.662 88.12V75.72C385.662 75.2933 385.715 75.0267 385.822 74.92C385.929 74.8133 386.142 74.76 386.462 74.76H399.102C399.422 74.76 399.635 74.8133 399.742 74.92C399.849 75.0267 399.902 75.2933 399.902 75.72V88.12Z" fill="white"/>
</svg>
