<svg width="951" height="354" viewBox="0 0 951 354" fill="none" xmlns="http://www.w3.org/2000/svg">
<path d="M314.817 15.697C319.039 15.2784 323.016 15.9063 325.57 22.0455C326.797 25.0454 328.663 24.6268 330.136 23.9291C335.144 21.6269 340.152 18.5573 345.111 15.7667C346.486 14.9993 347.812 13.8831 349.186 13.3947C361.019 9.13912 372.607 11.3716 384.293 10.5344C393.572 9.83676 402.263 14.3714 411.543 13.8831C415.569 13.6738 419.693 17.9294 423.032 21.9757C428.482 28.4638 434.718 32.6497 439.922 40.0447C443.752 45.5561 449.3 47.3002 454.407 48.2071C463.294 49.7419 472.377 47.5792 481.215 40.4633C482.099 39.7656 483.719 40.6726 484.014 39.8354C485.83 34.6031 488.924 35.9286 491.182 33.2078C491.673 32.5799 492.361 30.6963 492.312 30.487C491.28 28.3941 491.084 26.7895 493.195 26.929C501.64 27.5569 510.282 22.1153 518.678 24.2082C522.36 25.1151 525.994 26.4407 529.725 26.7197C531.984 26.929 534.341 28.2545 536.796 24.557C537.679 23.2315 540.625 23.1617 540.969 24.3477C542.835 30.8358 546.616 22.9524 548.678 26.5104C550.347 19.7433 552.802 29.7893 554.521 24.278C556.337 27.1383 558.399 19.6038 560.167 23.4408C560.609 22.4641 561.444 21.3479 561.444 20.4409C561.493 19.2549 562.966 15.5574 560.265 17.3015C559.283 17.9294 558.007 16.6737 556.877 16.1155C556.583 15.976 556.435 15.0691 556.19 14.511C556.632 14.1621 557.074 13.6738 557.516 13.4645C558.449 13.1157 559.529 13.325 560.314 12.4878C561.542 11.1623 563.015 9.34841 561.149 6.76713C560.658 6.06949 560.216 3.41845 560.413 3.20916C561.345 1.88364 562.475 0.9767 563.555 0C564.242 4.39515 566.992 -0.9767 568.318 2.51151C569.84 6.62761 573.62 0.837171 575.682 4.60444C577.057 1.9534 578.383 1.60458 579.218 4.53468C580.543 9.06936 584.913 7.04619 585.306 13.3947C589.234 14.3017 593.211 17.0225 597.041 15.6272C602.933 13.4645 608.776 15.4179 614.373 12.9064C622.671 9.27865 630.379 11.5111 638.383 10.7437C646.386 9.97629 654.242 11.0925 662.392 8.30195C669.904 5.72067 676.877 11.5111 684.487 11.0228C691.754 10.5344 699.119 6.13926 706.287 7.95313C709.479 8.7903 712.817 7.25548 715.96 10.3251C717.973 12.2785 721.263 11.3716 723.963 10.4646C725.927 9.83676 727.842 7.04619 729.806 5.30208C731.721 3.55798 733.096 9.83676 735.256 5.30208C741.246 6.41831 747.285 3.62774 753.325 2.79057C755.583 2.44175 757.94 1.74411 760.149 4.67421C761.917 7.11596 765.158 -0.837171 767.809 4.95326C768.938 7.46478 772.768 2.44175 775.272 4.60444C775.518 4.81373 776.745 4.18586 777.825 4.67421C782.391 6.8369 787.203 7.39501 791.671 10.4646C793.242 11.5111 795.452 11.5111 797.072 8.16242C797.956 11.5809 800.067 9.767 801.442 10.8135C807.481 15.2784 814.699 12.9762 820.64 18.348C822.26 19.8131 825.55 16.3248 828.054 15.0691C829.183 14.511 830.853 12.8366 831.393 13.5343C834.682 17.8597 838.807 15.4179 842.489 15.976C845.288 16.3946 848.037 15.9063 850.64 18.4875C852.702 20.5805 855.943 16.883 858.103 20.9293C858.839 22.3246 860.902 21.3479 862.325 21.3479C865.026 21.4176 867.775 20.999 870.427 21.4874C872.194 21.7665 874.306 22.3246 875.386 24.3477C876.221 25.8825 875.779 29.8591 875.73 32.7892C875.631 37.4634 877.301 39.1378 879.707 36.4867C880.345 35.7891 880.836 34.3938 881.523 33.6961C885.648 29.5103 889.723 26.0918 894.535 26.5104C898.217 26.8592 902.047 28.6034 905.975 24.2082C906.908 23.1617 908.43 23.8594 909.608 24.1384C910.787 24.4175 912.112 26.1616 913.045 25.464C914.273 24.557 915.206 23.1617 916.139 25.2547C917.022 27.2081 917.955 27.3476 919.232 25.464C919.526 25.0454 920.607 25.464 920.607 25.6733C920.607 31.4637 922.669 32.7194 925.32 32.0916C927.431 31.6032 928.855 38.3006 931.605 32.3009C932.341 30.6963 934.256 30.6963 935.631 29.9986C937.35 29.0917 939.461 28.3243 939.903 31.8823C940.492 36.3472 942.849 37.1844 944.027 40.254C944.96 42.6957 945.205 44.7189 942.849 45.7654C941.719 46.2537 940.688 47.7885 939.559 48.3466C937.791 49.1838 938.773 50.021 938.97 51.6256C939.412 55.044 937.988 58.7415 936.171 59.1601C934.698 59.5089 933.225 58.881 931.752 59.3694C931.114 59.5787 930.23 61.253 929.935 62.5088C929.052 66.1365 930.476 67.9504 931.654 69.9038C931.949 69.1364 932.292 68.5085 932.44 67.6713C932.734 66.2063 932.636 63.9041 934.06 65.8575C934.895 67.0435 935.876 67.8109 936.809 68.7876C935.778 70.1131 934.845 71.8572 933.716 72.6944C930.328 75.0664 930.377 74.9268 929.886 83.2288C929.739 85.531 926.793 88.2518 930.377 89.9261C931.899 90.6238 930.181 98.2979 928.119 102.484C926.744 105.344 925.664 108.972 924.976 112.46C924.338 115.878 924.338 119.646 924.142 123.204C923.994 125.715 923.798 127.599 925.86 124.878C928.021 121.948 931.065 122.157 932.636 116.437C933.569 112.879 935.778 112.181 937.742 113.855C940.295 116.088 942.75 118.809 945.942 118.599C946.58 118.529 946.286 118.599 945.696 121.529C945.304 123.483 945.549 126.134 946.089 127.878C946.531 129.343 947.759 129.901 948.691 130.878C947.513 131.296 946.187 131.157 945.205 132.203C943.831 133.738 941.376 135.761 942.603 139.11C944.371 143.784 941.327 145.389 940.786 145.249C937.399 144.482 935.729 149.365 933.765 152.714C930.476 158.225 931.261 164.504 935.287 167.155C936.122 167.713 936.908 168.411 937.546 169.388C937.89 169.876 938.037 171.69 937.841 172.108C936.564 174.48 935.091 176.573 933.765 178.876C933.127 179.992 932.685 181.387 932.145 182.643C933.029 183.759 933.962 185.992 934.845 185.782C937.89 185.015 940.197 188.015 942.898 188.643C945.107 189.201 944.862 191.084 943.634 193.875C942.898 195.619 942.259 197.503 941.67 199.456C941.425 200.293 941.327 201.828 941.572 202.247C944.027 206.502 943.487 208.107 939.952 207.688C939.608 207.618 938.773 209.432 938.724 210.339C938.626 212.083 939.412 214.246 939.019 215.362C937.448 219.757 939.903 217.455 940.246 218.432C940.639 219.548 940.786 221.99 940.345 222.827C937.251 228.897 939.412 229.106 942.014 229.176C942.407 229.176 942.75 229.943 943.094 230.431C942.456 230.92 941.818 231.338 941.179 231.827C939.559 233.082 939.363 235.175 940.345 236.85C942.112 239.85 944.027 242.57 945.942 245.221C946.433 245.919 947.415 245.64 947.759 246.477C949.035 249.756 951.048 253.105 950.999 256.802C950.95 260.57 948.004 262.453 945.893 264.755C943.34 267.476 940.541 270.546 938.773 275.639C937.742 278.569 936.269 278.639 935.238 275.848C934.305 273.267 933.471 271.523 931.556 275.29C930.426 277.522 928.708 278.708 927.235 280.383C926.204 276.127 924.584 280.313 923.258 280.383C922.521 280.383 921.294 280.034 921.147 280.592C920.557 282.476 920.116 284.708 920.066 286.731C920.066 287.359 921.589 288.545 922.178 288.126C927.137 284.568 931.703 283.034 936.122 288.336C937.939 290.498 937.742 292.312 936.318 293.917C933.765 296.847 931.212 301.8 927.922 298.033C927.53 297.614 926.449 299.219 925.811 299.079C923.798 298.521 922.129 301.172 920.312 301.87C916.531 303.335 912.751 299.498 908.97 304.521C908.283 301.73 906.81 301.8 905.288 302.01C902.145 302.358 898.954 298.452 895.713 304.382C895.468 304.8 893.946 302.149 892.914 302.219C891.883 302.289 890.656 304.661 889.674 304.591C883.242 304.033 882.162 304.242 875.288 308.986C874.158 309.753 872.931 309.963 871.753 310.102C870.034 310.242 868.561 310.242 870.427 313.869C870.476 313.939 869.838 315.474 869.641 315.404C865.812 314.497 861.933 317.707 858.25 317.846C853.586 318.055 848.823 316.869 844.502 314.497C842.686 313.521 841.998 313.73 840.231 315.055C837.383 317.148 835.223 312.544 832.522 311.777C832.915 310.521 833.75 308.916 833.602 308.009C832.277 300.335 827.514 302.986 824.568 300.196C822.506 303.684 820.296 301.87 818.185 301.94C812.931 302.079 807.825 301.87 802.62 306.684C800.755 308.358 798.251 307.521 796.09 307.451C790.149 307.172 784.061 308.637 778.464 313.172C770.608 319.59 762.506 318.334 754.65 323.357C751.704 325.241 748.071 324.753 745.125 323.357C742.474 322.102 739.675 327.962 737.416 323.776C734.421 328.939 731.279 325.66 728.186 326.218C726.909 326.427 725.731 324.404 724.405 324.334C722.588 324.125 720.526 323.846 718.906 325.311C715.665 328.241 712.523 329.706 709.135 329.148C707.466 328.869 705.944 329.008 704.323 331.659C702.458 334.659 702.163 325.66 699.413 330.125C697.744 332.776 696.222 329.218 694.7 328.729C692.932 328.101 691.41 334.171 689.692 329.566C689.201 328.241 686.107 328.659 684.929 330.194C682.572 333.264 680.314 332.357 678.546 331.52C676.778 330.683 675.551 330.683 673.734 331.729C672.114 332.636 670.297 331.938 668.579 331.938C666.615 331.938 664.504 331.031 662.687 332.078C653.702 337.38 645.207 333.264 636.468 334.589C627.335 329.218 617.319 331.938 607.646 332.287C600.478 332.566 592.916 332.845 585.944 339.403C583.391 341.845 582.36 337.101 579.709 339.054C575.732 341.915 571.214 342.054 566.943 342.543C564.684 342.822 562.18 343.938 560.167 340.38C559.283 338.845 556.877 340.101 555.159 339.961C553.833 339.892 552.311 344.426 551.231 340.171C548.089 343.17 544.897 336.543 541.657 342.543C541.558 342.752 540.282 340.101 539.545 340.24C536.01 340.868 532.72 338.496 528.842 342.403C524.963 346.24 518.089 345.682 512.786 345.542C506.599 345.403 500.315 343.589 493.981 348.193C492.164 349.519 490.839 350.147 489.218 348.263C487.991 346.868 486.518 349.868 485.241 350.496C483.915 351.124 481.51 347.914 481.117 348.752C479.202 352.589 478.809 347.845 477.68 348.124C477.238 348.263 476.698 348.403 476.305 348.891C473.654 352.24 471.199 351.193 468.744 349.938C468.253 349.659 467.713 349.449 467.222 349.17C465.945 357.193 464.472 353.496 463.048 350.356C462.066 348.193 461.281 347.217 459.464 349.519C457.549 351.961 455.536 351.751 452.05 350.845C451.559 350.705 451.068 350.635 450.577 350.845C443.163 354.333 435.847 355.449 428.924 351.263C424.26 356.286 419.792 352.24 415.225 353.426C414.734 353.565 414.194 352.449 413.703 351.961C414.391 351.612 415.127 351.403 415.716 350.775C416.355 350.147 417.042 349.17 417.484 348.124C417.729 347.496 417.778 345.682 417.582 345.542C415.667 344.496 413.752 343.31 411.739 342.822C409.726 342.403 408.842 344.636 409.972 347.496C410.659 349.379 410.659 350.286 409.53 351.403C408.695 352.24 407.762 352.798 406.878 353.496C406.78 352.03 406.24 349.798 406.633 349.17C408.4 346.101 409.088 342.961 407.615 339.961C406.829 338.287 408.057 333.543 405.7 334.868C404.522 335.496 403.491 338.217 402.607 340.24C402.214 341.217 402.558 343.101 402.165 344.077C401.821 344.915 400.446 345.682 400.299 345.333C398.335 340.589 395.635 339.124 392.247 339.961C390.872 340.31 391.019 339.333 391.756 337.101C392.836 333.543 392.001 329.008 390.43 329.497C386.502 330.683 383.409 325.869 378.99 328.799C375.258 331.241 371.085 329.078 366.862 331.659C364.358 333.194 361.609 331.729 359.399 336.682C358.957 337.729 356.306 337.659 356.159 336.892C355.52 333.613 355.078 331.171 352.476 331.799C350.512 332.217 348.745 332.636 346.977 334.659C346.633 335.078 345.995 334.799 345.504 334.729C344.718 334.52 343.491 335.078 344.62 332.078C345.553 329.566 346.093 326.636 346.83 323.915C346.977 323.288 347.173 322.66 347.321 322.032C346.879 321.823 346.388 321.125 346.093 321.404C342.656 324.613 343.245 312.335 338.974 317.148C336.764 319.66 333.376 323.288 331.363 316.66C331.118 315.893 330.087 316.032 329.399 315.893C323.458 315.125 322.133 314.497 317.272 308.567C315.602 306.474 314.62 310.311 313.589 310.032C311.871 309.544 309.956 308.428 308.876 306.265C307.206 302.916 305.586 308.498 304.702 306.893C303.131 303.963 301.02 305.916 299.301 305.009C298.467 304.591 297.878 303.196 297.092 302.498C296.945 302.358 296.012 304.242 296.061 304.382C297.779 308.777 294.981 310.032 293.95 310.242C291.249 310.939 288.499 310.73 285.848 310.381C284.768 310.242 283.835 307.87 282.902 308.219C281.871 308.567 281.036 311.428 279.956 312.265C278.876 313.102 277.059 313.8 276.568 312.823C275.488 310.66 274.261 310.311 272.788 310.451C270.48 310.66 268.172 309.474 265.963 312.683C266.748 305.428 262.379 309.544 261.347 306.195C260.562 303.684 258.893 310.102 258.205 305.847C258.107 305.079 257.321 304.451 257.37 303.963C257.616 302.289 260.464 299.986 257.125 299.568C256.045 299.428 254.768 298.591 254.179 297.196C251.577 290.847 247.354 288.545 243.721 285.127C242.002 283.522 239.498 284.499 237.583 283.452C234.539 281.778 231.839 280.383 228.647 285.196C227.714 286.592 225.849 286.103 224.425 286.243C217.109 287.01 210.137 291.615 203.115 296.847C201.446 298.103 201.446 299.428 201.151 301.521C200.562 305.288 199.335 307.8 196.978 307.87C193.443 307.939 190.546 309.335 187.944 313.102C186.471 315.195 185.882 315.753 184.605 313.381C184.016 312.265 182.15 312.614 181.021 313.311C174.441 317.358 168.255 317.497 162.216 313.381C160.743 312.404 158.779 313.311 157.06 313.242C154.458 313.172 151.806 313.939 149.99 309.265C149.302 307.521 146.553 308.498 144.736 308.707C143.607 308.846 141.937 311.079 141.446 310.381C138.844 306.474 136.438 309.614 133.885 311.777C130.595 314.567 130.645 314.358 129.613 307.87C129.417 306.684 128.582 305.568 127.895 305.358C126.766 304.94 125.882 305.009 125.145 308.219C122.494 319.451 118.173 323.288 112.576 320.148L106.979 319.52C104.72 323.985 102.952 319.102 100.743 319.869C98.7299 320.567 96.4222 319.799 94.5564 318.544C92.1997 317.009 94.5073 326.287 91.4632 322.59C90.4321 321.334 88.4681 322.45 87.4861 321.264C84.8347 317.986 81.6924 318.892 78.5991 318.683C77.7153 318.613 76.6351 318.544 75.9968 317.706C73.9837 314.916 72.3144 315.683 70.2522 319.032C67.3062 323.706 62.9364 324.822 59.9413 321.055C58.3701 319.102 57.5354 317.776 55.7187 320.916C54.884 322.381 53.6074 323.078 52.5273 324.125C52.3309 318.474 47.7155 324.613 47.4209 318.195C47.2736 314.986 45.9479 310.521 42.8056 315.265C42.3637 315.893 40.1542 313.73 41.3817 311.009C42.7565 308.009 42.3637 306.684 41.4799 304.312C40.3506 301.242 39.1722 305.498 38.8285 304.87C37.3555 302.289 35.2442 300.893 34.7041 296.638C33.7222 289.243 32.0037 285.685 27.5847 283.941C25.277 283.034 29.8433 277.034 26.259 278.359C23.3622 279.406 21.3 273.964 17.7648 278.011C15.4571 280.662 12.0202 279.197 9.5161 281.499C7.79761 283.103 6.32463 283.661 4.65524 283.731C2.93676 283.801 -0.402006 280.034 0.0398894 279.824C1.41468 278.987 2.83856 278.638 4.26245 278.429C6.71742 278.08 6.37373 277.662 8.5832 273.336C11.5292 267.476 11.1364 260.221 12.9531 254.012C13.2477 253.105 12.8549 251.291 12.4621 250.314C11.5292 247.942 10.5472 245.5 9.2706 243.687C8.14131 242.082 9.71249 236.431 6.66832 238.036C6.17733 234.966 5.63723 231.966 5.29354 228.827C5.19534 227.78 5.39174 225.966 5.83363 225.339C6.27553 224.711 7.60121 224.501 7.74851 224.99C9.3688 230.641 11.5292 224.083 13.3459 224.501C13.5914 224.571 13.9841 223.525 14.2787 222.967C13.886 222.618 13.5423 222.129 13.1004 221.92C10.3017 220.246 8.38681 215.851 9.76159 212.083C10.7927 209.293 8.9269 206.432 11.1364 203.851C11.922 202.944 12.5603 197.084 10.8909 194.224C10.7927 194.084 11.0873 192.689 11.3328 192.41C12.4621 191.224 14.3278 194.293 14.7697 190.456C14.917 189.34 12.3148 188.433 11.8238 186.55C11.4801 185.154 12.2166 181.317 13.0513 180.41C14.8679 178.387 16.9792 177.131 18.9923 176.225C20.4162 175.597 21.9874 176.573 23.4113 175.945C24.4914 175.527 26.3081 173.783 26.4063 172.527C26.75 169.039 24.8351 171.132 23.9023 170.783C22.1347 170.155 22.3311 168.132 23.2149 166.109C23.8041 164.713 24.786 163.039 25.6207 162.83C27.3392 162.341 29.0577 162.69 30.7762 162.69C32.6911 162.621 31.5618 156.272 34.2622 157.179C37.2082 158.156 36.7663 155.644 35.637 152.714C35.4406 152.226 35.8334 150.342 35.9807 150.342C39.074 149.435 40.9889 142.249 44.6222 143.714C46.6844 144.482 49.0903 143.435 51.2507 143.993C53.0674 144.412 55.1786 139.598 56.7498 143.784C56.848 144.063 57.9773 142.877 58.6647 142.319C63.0837 138.901 66.8152 131.436 71.9707 132.761C73.1491 125.715 75.9968 127.878 78.4518 127.669C78.9428 127.599 79.4829 127.669 79.8266 127.18C80.6122 126.064 81.2505 124.669 81.987 123.413C81.3487 123.064 80.7104 122.157 80.1212 122.367C77.7153 123.343 75.8004 118.39 73.1491 122.157C73.0018 122.367 72.118 120.971 71.5779 120.204C71.2342 119.646 70.9396 118.948 70.645 118.32C71.0378 117.832 71.4797 116.925 71.7743 116.925C75.8986 117.692 79.6302 113.227 83.5091 111.344C83.951 111.134 84.5401 109.181 84.5401 108.204C84.5401 107.367 83.8037 106.46 83.2636 106.111C81.987 105.205 79.9739 107.856 79.2865 104.158C82.7235 98.1583 77.1752 102.484 77.8135 99.3443C77.9608 98.6467 76.586 96.9026 76.7333 96.6235C77.3716 95.1585 78.1572 93.4841 79.041 92.8562C79.9248 92.2284 80.9559 92.5772 81.9379 92.5772C84.1474 92.5772 86.3568 92.6469 88.6154 92.5074C89.892 92.4377 91.9542 93.8329 91.856 89.2983C91.7578 85.3217 89.5483 86.996 88.3699 87.3449C85.8167 88.1123 83.2636 91.1121 80.6613 89.7866C79.9248 89.4378 79.2865 88.3913 78.7955 87.3449C78.6973 87.1356 79.6302 84.5543 79.9248 84.6241C84.0983 84.7636 84.0491 74.578 87.7316 73.6013C87.8298 73.6013 88.1735 71.4386 87.928 71.0898C87.3388 69.9736 86.6023 68.8573 85.7676 68.4387C84.1964 67.7411 84.6383 66.6946 85.6203 65.2994C86.2095 64.4622 86.8478 63.6948 87.4861 62.9971C88.0753 62.3693 88.7136 61.9507 89.3028 61.4623C88.6645 61.0437 87.8298 60.974 87.4861 60.1368C87.0933 59.0206 87.0933 57.3462 86.946 55.8812C87.437 56.1602 87.928 56.4393 88.4681 56.6486C88.8118 56.7184 89.3519 56.8579 89.4992 56.5091C90.7758 53.0906 91.7087 49.1838 92.8871 48.6955C94.9001 47.9281 97.1096 48.9048 99.1227 49.8117C101.038 50.7186 102.756 52.4627 104.622 53.7185C105.555 54.3464 106.537 54.8347 107.47 55.3928C105.898 56.9276 105.162 61.253 102.903 60.6251C102.412 60.4856 101.872 60.5554 101.381 60.4856C101.676 61.8111 101.872 63.346 102.314 64.4622C102.658 65.2296 103.296 65.5086 103.836 66.0668C103.394 66.4853 103.002 66.9039 102.511 67.183C102.265 67.3225 102.02 67.1132 101.774 67.2528C100.448 67.8109 98.6808 65.5784 97.8461 69.1364C96.6677 74.0897 99.9574 71.9967 100.743 74.3687C101.578 76.8802 105.064 73.5315 104.916 80.0196C104.867 83.4381 106.88 83.5078 108.403 80.1591C109.09 78.6243 109.826 77.4383 110.514 79.8103L117.044 83.5078C121.119 82.7404 125.047 85.4612 129.221 80.9963C130.399 79.7406 132.167 80.5777 132.854 83.3683C133.983 81.2056 135.309 80.8568 136.831 80.7173C138.402 80.508 139.973 78.8336 141.594 78.2057C143.214 77.5779 142.625 76.95 142.33 75.0664C141.79 71.6479 143.214 67.8109 144.933 67.462C146.356 67.183 147.78 67.7411 149.155 68.0899C149.695 68.2294 150.432 69.4154 150.579 69.2062C154.507 62.5785 157.895 66.8342 159.957 70.4619C163.05 75.8338 162.461 66.7644 164.327 67.2528C167.273 67.9504 170.71 65.2994 171.888 60.7647C173.067 56.2998 174.196 57.2067 175.767 56.5788C177.093 56.0905 178.517 54.9045 179.695 53.3697C181.364 51.207 182.641 49.4629 181.217 44.7887C179.695 39.8354 182.248 34.2543 184.212 29.5103C184.654 28.4638 185.391 27.2778 186.029 27.1383C189.564 26.0221 193.246 24.3477 196.683 24.6268C199.826 24.8361 202.723 27.2778 205.767 28.7429C206.405 29.0219 207.387 30.0684 207.633 29.6498C212.002 22.2548 212.886 29.3708 213.966 33.6961C215.145 38.5099 217.747 35.7193 219.613 36.696C220.742 37.2541 222.903 34.5333 223.541 35.51C224.572 37.0448 224.867 40.3237 225.259 43.0446C225.652 45.6956 223.639 49.6024 225.799 51.207C227.616 52.5325 229.629 53.7185 231.642 53.858C235.079 53.9975 238.516 55.1138 242.1 52.2534C242.395 51.9744 243.033 55.3231 243.917 51.9046C244.261 50.6489 245.046 48.9745 245.685 48.6955C248.729 47.5095 252.019 47.9281 254.817 45.5561C257.763 43.0446 259.285 46.9514 261.593 46.7421C261.888 46.7421 265.275 50.2303 260.906 51.5558C259.531 51.9744 258.009 55.2533 258.107 59.0206C258.205 62.2297 257.861 65.3691 255.308 65.0203C255.161 66.5551 254.67 68.5783 254.965 69.555C256.045 72.8339 259.285 73.7408 261.249 72.206C263.311 70.6014 262.968 63.4157 265.816 64.8808C268.86 66.4853 267.829 58.3229 270.824 58.602C272.198 58.7415 271.855 52.3232 269.498 51.207C268.86 50.9279 268.27 50.3698 267.681 49.9512C268.32 49.4629 269.056 49.2536 269.596 48.4862C271.118 46.6025 272.591 45.3468 274.359 45.7654C276.617 46.3932 278.385 45.7654 279.416 40.533C280.447 35.0914 282.558 31.2544 286.045 32.0916C292.624 23.5803 300.676 25.1849 307.403 17.162C309.416 14.8598 312.362 16.0458 314.817 15.697ZM96.2258 118.46C96.6186 118.181 97.797 117.762 98.779 116.646C99.27 116.088 99.3191 113.576 99.7119 113.367C101.774 112.32 104.082 114.692 105.898 110.367C106.34 114.902 108.452 109.948 109.532 111.553C110.121 112.39 111.496 113.088 111.889 112.46C116.553 104.925 121.758 104.856 127.011 104.925C128.19 104.925 129.908 105.135 130.448 103.879C132.952 98.4374 135.947 99.135 138.697 99.6931C143.41 100.67 146.847 97.1119 149.646 89.8564C150.088 88.7401 150.677 86.8565 150.481 86.1589C150.088 84.9031 149.057 83.2288 148.419 83.5078C145.473 84.9031 142.576 87.6937 139.63 88.5309C136.242 89.5076 138.942 91.461 138.746 92.9958C138.55 94.8794 136.34 95.7863 135.505 95.0189C134.671 94.2515 134.523 89.8564 133.149 92.8562C131.086 97.4607 129.564 88.5309 127.846 93.9725C126.618 89.1587 123.329 93.1353 121.561 90.554C121.217 89.9959 120.481 89.5773 120.088 89.9261C116.357 93.2748 116.209 93.6934 114.098 91.3214C112.478 89.5076 111.201 89.4378 109.335 91.3214C107.912 92.7865 106.193 93.5539 104.622 94.0422C103.149 94.4608 101.676 94.1818 100.203 94.112C96.5695 93.9725 102.265 100.6 98.8772 99.2746C95.5384 97.949 94.4091 105.763 91.5614 104.925C91.5123 105.902 91.2668 107.228 91.5123 107.716C92.1015 108.832 93.0835 109.251 93.6236 110.367C94.1145 111.344 94.7037 113.855 94.5564 114.134C91.5123 118.809 93.6727 118.39 96.2258 118.46ZM456.567 256.384C457.745 255.547 458.187 255.198 458.629 254.919C458.236 254.361 457.942 253.454 457.451 253.244C457.107 253.105 456.616 253.733 456.174 254.081C456.371 255.058 456.518 255.965 456.567 256.384Z" fill="#FFE68E"/>
</svg>
