<svg width="863" height="272" viewBox="0 0 863 272" fill="none" xmlns="http://www.w3.org/2000/svg">
<path d="M285.685 12.0609C289.517 11.7393 293.126 12.2218 295.443 16.9389C296.557 19.2439 298.25 18.9223 299.587 18.3862C304.132 16.6173 308.676 14.2587 313.177 12.1145C314.424 11.5249 315.627 10.6672 316.875 10.292C327.613 7.02215 338.128 8.73748 348.732 8.09423C357.154 7.55819 365.04 11.0425 373.461 10.6672C377.115 10.5064 380.857 13.7763 383.887 16.8853C388.833 21.8705 394.492 25.0868 399.215 30.7688C402.69 35.0035 407.725 36.3436 412.359 37.0405C420.423 38.2198 428.666 36.5581 436.686 31.0904C437.488 30.5544 438.959 31.2512 439.226 30.608C440.874 26.5877 443.682 27.6062 445.731 25.5156C446.177 25.0332 446.8 23.5858 446.756 23.425C445.82 21.8169 445.642 20.584 447.558 20.6912C455.222 21.1737 463.063 16.9925 470.683 18.6007C474.024 19.2975 477.321 20.316 480.708 20.5304C482.757 20.6912 484.896 21.7097 487.124 18.8687C487.926 17.8502 490.599 17.7966 490.911 18.7079C492.604 23.6931 496.035 17.6358 497.906 20.3696C499.421 15.17 501.649 22.889 503.208 18.6543C504.857 20.852 506.728 15.0628 508.332 18.011C508.733 17.2605 509.491 16.4029 509.491 15.706C509.535 14.7948 510.872 11.9537 508.422 13.2938C507.53 13.7763 506.372 12.8114 505.347 12.3826C505.08 12.2754 504.946 11.5785 504.723 11.1497C505.124 10.8816 505.525 10.5064 505.926 10.3456C506.773 10.0776 507.753 10.2384 508.466 9.59515C509.58 8.57667 510.917 7.18296 509.224 5.19961C508.778 4.66356 508.377 2.6266 508.555 2.46579C509.402 1.44731 510.427 0.750459 511.407 0C512.031 3.37706 514.526 -0.750459 515.729 1.92975C517.11 5.0924 520.541 0.64325 522.412 3.53788C523.66 1.50092 524.863 1.2329 525.62 3.48427C526.823 6.96854 530.789 5.41402 531.145 10.292C534.71 10.9889 538.319 13.0794 541.794 12.0073C547.141 10.3456 552.443 11.8465 557.522 9.91677C565.052 7.12936 572.048 8.84469 579.31 8.25504C586.573 7.6654 593.702 8.52307 601.098 6.3789C607.915 4.39554 614.242 8.84469 621.149 8.46946C627.743 8.09423 634.426 4.71717 640.932 6.11088C643.828 6.75413 646.858 5.57484 649.709 7.93342C651.536 9.43434 654.521 8.73748 656.972 8.04063C658.754 7.55819 660.492 5.41402 662.274 4.07392C664.012 2.73381 665.259 7.55819 667.22 4.07392C672.655 4.93159 678.136 2.78742 683.616 2.14417C685.666 1.87615 687.805 1.3401 689.81 3.59148C691.414 5.46763 694.354 -0.64325 696.76 3.8059C697.785 5.73565 701.261 1.87615 703.533 3.53788C703.756 3.69869 704.87 3.21625 705.85 3.59148C709.994 5.25321 714.36 5.68204 718.415 8.04063C719.84 8.84469 721.846 8.84469 723.316 6.27169C724.118 8.8983 726.034 7.50459 727.281 8.30865C732.762 11.7393 739.311 9.97038 744.703 14.0979C746.173 15.2236 749.158 12.5434 751.431 11.5785C752.456 11.1497 753.97 9.86317 754.461 10.3992C757.446 13.7227 761.189 11.8465 764.53 12.2754C767.07 12.597 769.565 12.2218 771.927 14.2051C773.798 15.8132 776.739 12.9722 778.699 16.0813C779.367 17.1533 781.239 16.4029 782.531 16.4029C784.981 16.4565 787.477 16.1349 789.883 16.5101C791.487 16.7245 793.403 17.1533 794.383 18.7079C795.14 19.8872 794.739 22.9426 794.695 25.194C794.606 28.7854 796.121 30.0719 798.304 28.035C798.883 27.4989 799.329 26.4269 799.952 25.8908C803.695 22.6746 807.393 20.048 811.76 20.3696C815.101 20.6376 818.577 21.9777 822.141 18.6007C822.988 17.7966 824.369 18.3326 825.438 18.547C826.508 18.7615 827.711 20.1016 828.557 19.5655C829.671 18.8687 830.518 17.7966 831.364 19.4047C832.166 20.9056 833.013 21.0128 834.171 19.5655C834.439 19.2439 835.419 19.5655 835.419 19.7263C835.419 24.1755 837.29 25.1404 839.696 24.6579C841.612 24.2827 842.904 29.4287 845.4 24.8187C846.068 23.5858 847.806 23.5858 849.053 23.0498C850.613 22.3529 852.529 21.7633 852.93 24.4971C853.464 27.9278 855.603 28.571 856.672 30.9296C857.519 32.8058 857.742 34.3603 855.603 35.1643C854.578 35.5396 853.642 36.7189 852.618 37.1477C851.014 37.791 851.905 38.4342 852.083 39.6671C852.484 42.2937 851.192 45.1347 849.543 45.4563C848.207 45.7244 846.87 45.2419 845.533 45.6172C844.954 45.778 844.152 47.0645 843.885 48.0293C843.083 50.8168 844.375 52.2105 845.444 53.7114C845.711 53.1217 846.023 52.6393 846.157 51.9961C846.424 50.8704 846.335 49.1014 847.627 50.6024C848.385 51.5136 849.276 52.1033 850.123 52.8537C849.187 53.8722 848.34 55.2123 847.315 55.8556C844.241 57.6781 844.286 57.5709 843.84 63.9498C843.706 65.7187 841.033 67.8093 844.286 69.0958C845.667 69.6318 844.107 75.5283 842.236 78.7446C840.989 80.9423 840.008 83.7297 839.385 86.4099C838.805 89.0365 838.805 91.9312 838.627 94.665C838.493 96.5947 838.315 98.0421 840.187 95.9515C842.147 93.7001 844.91 93.8609 846.335 89.4654C847.182 86.7316 849.187 86.1955 850.969 87.482C853.286 89.1974 855.514 91.2879 858.41 91.1271C858.989 91.0735 858.722 91.1271 858.187 93.3785C857.831 94.8794 858.054 96.9164 858.544 98.2565C858.945 99.3822 860.059 99.811 860.905 100.561C859.836 100.883 858.633 100.776 857.742 101.58C856.494 102.759 854.266 104.314 855.38 106.887C856.984 110.478 854.222 111.711 853.732 111.604C850.657 111.014 849.142 114.767 847.36 117.34C844.375 121.574 845.088 126.399 848.741 128.436C849.499 128.864 850.212 129.4 850.791 130.151C851.103 130.526 851.236 131.92 851.058 132.242C849.9 134.064 848.563 135.672 847.36 137.441C846.781 138.299 846.38 139.371 845.89 140.336C846.692 141.193 847.538 142.909 848.34 142.748C851.103 142.158 853.197 144.463 855.648 144.946C857.653 145.375 857.43 146.822 856.316 148.966C855.648 150.306 855.068 151.753 854.534 153.254C854.311 153.898 854.222 155.077 854.445 155.399C856.672 158.668 856.182 159.901 852.974 159.58C852.662 159.526 851.905 160.92 851.86 161.617C851.771 162.957 852.484 164.618 852.128 165.476C850.702 168.853 852.93 167.084 853.241 167.835C853.598 168.692 853.732 170.569 853.331 171.212C850.524 175.875 852.484 176.036 854.845 176.09C855.202 176.09 855.514 176.679 855.826 177.055C855.247 177.43 854.667 177.751 854.088 178.127C852.618 179.092 852.439 180.7 853.331 181.986C854.935 184.291 856.672 186.382 858.41 188.419C858.856 188.955 859.747 188.74 860.059 189.384C861.217 191.903 863.044 194.476 862.999 197.317C862.955 200.212 860.281 201.659 858.365 203.428C856.049 205.518 853.509 207.877 851.905 211.79C850.969 214.042 849.632 214.095 848.697 211.951C847.85 209.968 847.093 208.627 845.355 211.522C844.33 213.237 842.771 214.149 841.434 215.435C840.498 212.165 839.028 215.382 837.825 215.435C837.157 215.435 836.043 215.167 835.909 215.596C835.374 217.043 834.973 218.759 834.929 220.313C834.929 220.796 836.31 221.707 836.845 221.385C841.345 218.651 845.489 217.472 849.499 221.546C851.147 223.208 850.969 224.602 849.677 225.834C847.36 228.086 845.043 231.892 842.058 228.997C841.701 228.675 840.721 229.908 840.142 229.801C838.315 229.372 836.8 231.409 835.152 231.945C831.721 233.071 828.29 230.123 824.859 233.982C824.235 231.838 822.899 231.892 821.518 232.053C818.666 232.321 815.77 229.319 812.829 233.875C812.606 234.197 811.225 232.16 810.289 232.213C809.354 232.267 808.24 234.089 807.349 234.036C801.512 233.607 800.532 233.768 794.294 237.413C793.269 238.003 792.155 238.163 791.086 238.271C789.526 238.378 788.189 238.378 789.883 241.165C789.927 241.219 789.348 242.398 789.17 242.345C785.694 241.648 782.174 244.113 778.833 244.221C774.6 244.382 770.278 243.47 766.357 241.648C764.708 240.897 764.085 241.058 762.481 242.077C759.896 243.685 757.936 240.147 755.485 239.557C755.842 238.592 756.599 237.359 756.466 236.662C755.263 230.766 750.941 232.803 748.267 230.659C746.396 233.339 744.391 231.945 742.475 231.999C737.707 232.106 733.074 231.945 728.351 235.644C726.658 236.931 724.385 236.287 722.425 236.234C717.033 236.019 711.508 237.145 706.429 240.629C699.3 245.561 691.948 244.596 684.819 248.455C682.146 249.903 678.849 249.527 676.175 248.455C673.769 247.491 671.23 251.993 669.18 248.777C666.462 252.744 663.611 250.224 660.804 250.653C659.645 250.814 658.576 249.259 657.373 249.206C655.724 249.045 653.853 248.831 652.382 249.956C649.442 252.208 646.59 253.333 643.516 252.905C642.001 252.69 640.62 252.797 639.149 254.834C637.456 257.139 637.189 250.224 634.694 253.655C633.179 255.692 631.798 252.958 630.416 252.583C628.812 252.1 627.431 256.764 625.872 253.226C625.426 252.208 622.619 252.529 621.55 253.709C619.411 256.067 617.361 255.37 615.757 254.727C614.153 254.084 613.039 254.084 611.391 254.888C609.92 255.585 608.272 255.049 606.712 255.049C604.93 255.049 603.014 254.352 601.366 255.156C593.212 259.23 585.504 256.067 577.573 257.086C569.285 252.958 560.196 255.049 551.418 255.317C544.913 255.531 538.051 255.746 531.724 260.784C529.408 262.661 528.472 259.015 526.066 260.516C522.457 262.714 518.358 262.821 514.481 263.197C512.432 263.411 510.159 264.269 508.332 261.535C507.53 260.356 505.347 261.32 503.788 261.213C502.585 261.16 501.204 264.644 500.223 261.374C497.372 263.679 494.476 258.587 491.535 263.197C491.446 263.357 490.287 261.32 489.619 261.428C486.411 261.91 483.426 260.088 479.906 263.089C476.386 266.038 470.148 265.609 465.336 265.502C459.722 265.394 454.019 264.001 448.271 267.539C446.622 268.557 445.419 269.039 443.949 267.592C442.835 266.52 441.498 268.825 440.34 269.307C439.137 269.79 436.954 267.324 436.597 267.967C434.859 270.916 434.503 267.27 433.478 267.485C433.077 267.592 432.587 267.699 432.231 268.075C429.825 270.648 427.597 269.843 425.369 268.879C424.923 268.664 424.433 268.503 423.988 268.289C422.829 274.453 421.493 271.612 420.2 269.2C419.309 267.538 418.596 266.788 416.948 268.557C415.21 270.433 413.383 270.272 410.22 269.575C409.774 269.468 409.329 269.415 408.883 269.575C402.155 272.256 395.516 273.113 389.234 269.897C385.001 273.757 380.947 270.648 376.803 271.559C376.357 271.666 375.867 270.808 375.422 270.433C376.045 270.165 376.714 270.004 377.248 269.522C377.828 269.039 378.451 268.289 378.852 267.485C379.075 267.002 379.12 265.609 378.941 265.502C377.204 264.697 375.466 263.786 373.639 263.411C371.813 263.089 371.011 264.805 372.035 267.002C372.659 268.45 372.659 269.147 371.634 270.004C370.877 270.648 370.03 271.076 369.228 271.612C369.139 270.487 368.649 268.771 369.005 268.289C370.609 265.93 371.233 263.518 369.897 261.213C369.184 259.927 370.298 256.282 368.159 257.3C367.09 257.783 366.154 259.873 365.352 261.428C364.995 262.178 365.307 263.625 364.951 264.376C364.639 265.019 363.391 265.609 363.258 265.341C361.475 261.696 359.025 260.57 355.951 261.213C354.703 261.481 354.837 260.731 355.505 259.015C356.485 256.282 355.728 252.797 354.302 253.173C350.737 254.084 347.93 250.385 343.92 252.637C340.534 254.513 336.747 252.851 332.915 254.834C330.643 256.014 328.147 254.888 326.142 258.694C325.741 259.498 323.335 259.444 323.202 258.855C322.623 256.335 322.222 254.459 319.86 254.942C318.078 255.263 316.474 255.585 314.87 257.139C314.558 257.461 313.979 257.247 313.533 257.193C312.82 257.032 311.706 257.461 312.731 255.156C313.578 253.226 314.068 250.975 314.736 248.884C314.87 248.402 315.048 247.919 315.182 247.437C314.781 247.276 314.335 246.74 314.068 246.954C310.949 249.42 311.484 239.986 307.607 243.685C305.602 245.614 302.528 248.402 300.701 243.309C300.478 242.72 299.542 242.827 298.919 242.72C293.527 242.13 292.324 241.648 287.913 237.091C286.398 235.483 285.507 238.431 284.572 238.217C283.012 237.842 281.274 236.984 280.294 235.322C278.779 232.749 277.309 237.038 276.507 235.805C275.081 233.553 273.165 235.054 271.606 234.358C270.848 234.036 270.314 232.964 269.601 232.428C269.467 232.321 268.621 233.768 268.665 233.875C270.225 237.252 267.685 238.217 266.749 238.378C264.299 238.914 261.803 238.753 259.397 238.485C258.417 238.378 257.571 236.555 256.724 236.823C255.788 237.091 255.031 239.289 254.051 239.932C253.07 240.576 251.422 241.112 250.976 240.361C249.996 238.699 248.882 238.431 247.545 238.539C245.451 238.699 243.357 237.788 241.352 240.254C242.065 234.679 238.1 237.842 237.164 235.269C236.451 233.339 234.936 238.271 234.312 235.001C234.223 234.411 233.51 233.929 233.555 233.553C233.778 232.267 236.362 230.498 233.332 230.176C232.352 230.069 231.193 229.426 230.659 228.354C228.297 223.476 224.465 221.707 221.168 219.08C219.609 217.847 217.336 218.598 215.599 217.794C212.836 216.507 210.386 215.435 207.49 219.134C206.643 220.206 204.95 219.831 203.658 219.938C197.019 220.528 190.692 224.066 184.32 228.086C182.805 229.051 182.805 230.069 182.538 231.677C182.003 234.572 180.89 236.502 178.751 236.555C175.543 236.609 172.914 237.681 170.553 240.576C169.216 242.184 168.681 242.613 167.523 240.79C166.988 239.932 165.295 240.2 164.27 240.736C158.3 243.845 152.685 243.953 147.205 240.79C145.868 240.04 144.086 240.736 142.527 240.683C140.165 240.629 137.759 241.219 136.111 237.627C135.487 236.287 132.992 237.038 131.343 237.199C130.318 237.306 128.803 239.021 128.358 238.485C125.996 235.483 123.813 237.895 121.496 239.557C118.511 241.701 118.555 241.54 117.62 236.555C117.442 235.644 116.684 234.786 116.06 234.626C115.036 234.304 114.234 234.358 113.565 236.823C111.159 245.454 107.238 248.402 102.159 245.99L97.0794 245.507C95.0299 248.938 93.4258 245.186 91.4208 245.775C89.594 246.311 87.4999 245.722 85.8067 244.757C83.6681 243.577 85.7622 250.707 82.9997 247.866C82.064 246.901 80.2818 247.759 79.3907 246.847C76.9846 244.328 74.133 245.025 71.326 244.864C70.524 244.81 69.5438 244.757 68.9645 244.113C67.1377 241.969 65.6228 242.559 63.7515 245.132C61.0781 248.723 57.1126 249.581 54.3947 246.686C52.9689 245.186 52.2114 244.167 50.5628 246.579C49.8054 247.705 48.6469 248.241 47.6667 249.045C47.4885 244.703 43.3002 249.42 43.0329 244.489C42.8992 242.023 41.6962 238.592 38.8446 242.237C38.4436 242.72 36.4385 241.058 37.5525 238.967C38.8 236.662 38.4436 235.644 37.6416 233.821C36.6168 231.463 35.5474 234.733 35.2355 234.25C33.8989 232.267 31.9829 231.195 31.4928 227.925C30.6017 222.243 29.0422 219.509 25.0322 218.169C22.938 217.472 27.0818 212.862 23.8292 213.881C21.2004 214.685 19.329 210.504 16.121 213.613C14.0268 215.65 10.9079 214.524 8.63553 216.293C7.07607 217.526 5.73938 217.955 4.22447 218.008C2.66501 218.062 -0.364807 215.167 0.0361983 215.006C1.28377 214.363 2.5759 214.095 3.86803 213.934C6.09583 213.666 5.78394 213.345 7.78896 210.021C10.4623 205.518 10.1059 199.944 11.7545 195.173C12.0218 194.476 11.6653 193.082 11.3089 192.332C10.4623 190.509 9.57121 188.633 8.41275 187.239C7.38796 186.007 8.81376 181.665 6.05128 182.897C5.60571 180.539 5.1156 178.234 4.8037 175.822C4.71459 175.018 4.89282 173.624 5.29382 173.142C5.69483 172.659 6.89784 172.498 7.03151 172.874C8.50186 177.215 10.4623 172.177 12.1109 172.498C12.3337 172.552 12.6901 171.748 12.9575 171.319C12.601 171.051 12.2891 170.676 11.8881 170.515C9.34843 169.228 7.61074 165.851 8.85831 162.957C9.79399 160.813 8.10086 158.615 10.1059 156.631C10.8188 155.935 11.398 151.432 9.8831 149.234C9.79399 149.127 10.0613 148.055 10.2841 147.84C11.3089 146.929 13.002 149.288 13.403 146.339C13.5367 145.482 11.1752 144.785 10.7297 143.338C10.4178 142.266 11.0861 139.317 11.8436 138.62C13.4921 137.066 15.4081 136.101 17.2349 135.404C18.527 134.922 19.9528 135.672 21.2449 135.19C22.2252 134.868 23.8737 133.528 23.9628 132.563C24.2747 129.883 22.537 131.491 21.6905 131.223C20.0865 130.741 20.2647 129.186 21.0667 127.632C21.6014 126.559 22.4925 125.273 23.2499 125.112C24.8094 124.737 26.3689 125.005 27.9283 125.005C29.666 124.951 28.6412 120.073 31.0918 120.77C33.7652 121.521 33.3642 119.591 32.3394 117.34C32.1612 116.964 32.5176 115.517 32.6513 115.517C35.4583 114.82 37.196 109.299 40.4932 110.425C42.3645 111.014 44.5478 110.21 46.5082 110.639C48.1568 110.961 50.0727 107.262 51.4985 110.478C51.5876 110.693 52.6124 109.781 53.2362 109.353C57.2463 106.726 60.6325 100.99 65.3109 102.009C66.3803 96.5947 68.9645 98.2565 71.1923 98.0957C71.6379 98.0421 72.128 98.0957 72.4399 97.7204C73.1528 96.8628 73.732 95.7907 74.4004 94.8258C73.8211 94.5578 73.2419 93.8609 72.7072 94.0217C70.524 94.7722 68.7863 90.9663 66.3803 93.8609C66.2466 94.0217 65.4446 92.9497 64.9545 92.36C64.6426 91.9312 64.3752 91.3951 64.1079 90.9127C64.4644 90.5375 64.8654 89.8406 65.1327 89.8406C68.8754 90.4303 72.2617 86.9996 75.7816 85.5523C76.1826 85.3915 76.7173 83.8905 76.7173 83.1401C76.7173 82.4968 76.0489 81.8 75.5588 81.532C74.4004 80.8351 72.5736 82.8721 71.9498 80.0311C75.0687 75.4211 70.0339 78.7445 70.6131 76.3324C70.7468 75.7963 69.4992 74.4562 69.6329 74.2418C70.2121 73.1161 70.925 71.8296 71.727 71.3472C72.529 70.8647 73.4647 71.1328 74.3558 71.1328C76.3609 71.1328 78.3659 71.1864 80.4155 71.0791C81.5739 71.0255 83.4453 72.0976 83.3562 68.6134C83.267 65.5579 81.262 66.8444 80.1927 67.1124C77.8758 67.7021 75.5588 70.0071 73.1974 68.9886C72.529 68.7206 71.9498 67.9165 71.5042 67.1124C71.4151 66.9516 72.2617 64.9683 72.529 65.0219C76.3163 65.1291 76.2717 57.3029 79.6134 56.5524C79.7026 56.5524 80.0145 54.8907 79.7917 54.6227C79.257 53.765 78.5887 52.9073 77.8312 52.5857C76.4054 52.0497 76.8064 51.2456 77.6975 50.1735C78.2322 49.5303 78.8114 48.9406 79.3907 48.4046C79.9253 47.9221 80.5046 47.6005 81.0392 47.2253C80.46 46.9037 79.7026 46.8501 79.3907 46.2068C79.0342 45.3491 79.0342 44.0626 78.9005 42.937C79.3461 43.1514 79.7917 43.3658 80.2818 43.5266C80.5937 43.5802 81.0838 43.6874 81.2175 43.4194C82.3759 40.7928 83.2225 37.791 84.2918 37.4157C86.1186 36.8261 88.1237 37.5765 89.9505 38.2734C91.6882 38.9702 93.2476 40.3103 94.9408 41.2752C95.7873 41.7577 96.6784 42.1329 97.525 42.5617C96.0992 43.741 95.4309 47.0645 93.3813 46.582C92.9357 46.4748 92.4456 46.5284 92 46.4748C92.2674 47.4933 92.4456 48.6726 92.8466 49.5303C93.1585 50.1199 93.7377 50.3343 94.2279 50.7632C93.8268 51.0848 93.4704 51.4064 93.0248 51.6208C92.8021 51.728 92.5793 51.5672 92.3565 51.6744C91.1535 52.1033 89.5495 50.3879 88.792 53.1217C87.7227 56.9276 90.7079 55.3195 91.4208 57.1421C92.1783 59.0718 95.3418 56.4988 95.2081 61.484C95.1635 64.1106 96.9903 64.1642 98.3716 61.5912C98.9954 60.4119 99.6637 59.5006 100.287 61.3232L106.213 64.1642C109.912 63.5746 113.476 65.6651 117.263 62.2345C118.333 61.2696 119.937 61.9128 120.561 64.057C121.585 62.3953 122.788 62.1273 124.17 62.02C125.595 61.8592 127.021 60.5727 128.492 60.0903C129.962 59.6079 129.427 59.1254 129.16 57.6781C128.67 55.0515 129.962 52.1033 131.521 51.8352C132.813 51.6208 134.106 52.0497 135.353 52.3177C135.843 52.4249 136.512 53.3362 136.645 53.1754C140.21 48.083 143.284 51.3528 145.156 54.1402C147.963 58.2678 147.428 51.2992 149.121 51.6744C151.794 52.2105 154.913 50.1735 155.983 46.6892C157.052 43.2586 158.077 43.9554 159.503 43.473C160.706 43.0978 161.998 42.1865 163.067 41.0072C164.582 39.3455 165.74 38.0054 164.448 34.4139C163.067 30.608 165.384 26.3197 167.166 22.6746C167.567 21.8705 168.236 20.9592 168.815 20.852C172.023 19.9944 175.365 18.7079 178.483 18.9223C181.335 19.0831 183.964 20.9592 186.726 22.0849C187.306 22.2993 188.197 23.1034 188.419 22.7818C192.385 17.0997 193.187 22.5674 194.167 25.8908C195.237 29.5895 197.598 27.4453 199.291 28.1958C200.316 28.6246 202.276 26.5341 202.856 27.2845C203.791 28.4638 204.059 30.9832 204.415 33.0738C204.772 35.1107 202.945 38.1126 204.905 39.3455C206.554 40.364 208.381 41.2752 210.207 41.3824C213.326 41.4896 216.445 42.3473 219.698 40.1495C219.965 39.9351 220.544 42.5081 221.346 39.8815C221.658 38.9166 222.371 37.6301 222.951 37.4157C225.713 36.5045 228.698 36.8261 231.238 35.0035C233.911 33.0738 235.293 36.0756 237.387 35.9148C237.654 35.9148 240.728 38.595 236.763 39.6135C235.515 39.9351 234.134 42.4545 234.223 45.3491C234.312 47.8149 234 50.2271 231.684 49.9591C231.55 51.1384 231.104 52.6929 231.372 53.4434C232.352 55.9628 235.293 56.6596 237.075 55.4803C238.946 54.2474 238.634 48.7262 241.219 49.8519C243.981 51.0848 243.045 44.8131 245.763 45.0275C247.011 45.1347 246.699 40.2031 244.56 39.3455C243.981 39.1311 243.446 38.7022 242.912 38.3806C243.491 38.0054 244.159 37.8446 244.649 37.2549C246.031 35.8076 247.367 34.8427 248.971 35.1643C251.021 35.6468 252.625 35.1643 253.561 31.144C254.496 26.9629 256.412 24.0147 259.576 24.6579C265.546 18.1182 272.853 19.3511 278.958 13.1866C280.784 11.4177 283.458 12.329 285.685 12.0609ZM87.3217 91.0199C87.6781 90.8055 88.7474 90.4839 89.6386 89.6262C90.0841 89.1974 90.1287 87.2676 90.4851 87.1068C92.3565 86.3027 94.4506 88.1253 96.0992 84.8018C96.5002 88.2861 98.4161 84.4802 99.3964 85.7131C99.931 86.3563 101.179 86.8924 101.535 86.4099C105.768 80.6207 110.491 80.5671 115.258 80.6207C116.328 80.6207 117.887 80.7815 118.377 79.8166C120.65 75.6355 123.368 76.1716 125.863 76.6004C130.14 77.3508 133.259 74.617 135.799 69.0422C136.2 68.1845 136.734 66.7372 136.556 66.2012C136.2 65.2363 135.264 63.9498 134.685 64.1642C132.011 65.2363 129.383 67.3805 126.709 68.0237C123.635 68.7742 126.085 70.2751 125.907 71.4544C125.729 72.9017 123.724 73.5985 122.967 73.0089C122.209 72.4193 122.075 69.0422 120.828 71.3472C118.957 74.885 117.575 68.0237 116.016 72.2048C114.902 68.5061 111.917 71.5616 110.313 69.5782C110.001 69.1494 109.332 68.8278 108.976 69.0958C105.59 71.6688 105.456 71.9904 103.54 70.1679C102.07 68.7742 100.911 68.7206 99.2181 70.1679C97.926 71.2936 96.3665 71.8832 94.9408 72.2584C93.6041 72.5801 92.2674 72.3657 90.9307 72.312C87.6335 72.2048 92.8021 77.2972 89.7277 76.2788C86.6979 75.2603 85.6731 81.2639 83.0888 80.6207C83.0443 81.3712 82.8215 82.3896 83.0443 82.7649C83.5789 83.6225 84.4701 83.9442 84.9602 84.8018C85.4057 85.5523 85.9404 87.482 85.8067 87.6964C83.0443 91.2879 85.0047 90.9663 87.3217 91.0199ZM414.319 196.995C415.388 196.352 415.789 196.084 416.19 195.87C415.834 195.441 415.567 194.744 415.121 194.583C414.809 194.476 414.364 194.958 413.963 195.226C414.141 195.977 414.275 196.674 414.319 196.995Z" fill="#FFE68E"/>
</svg>
